<svg x="0" y="0" version="1.1" xmlns="http://www.w3.org/2000/svg" xmlns:xlink="http://www.w3.org/1999/xlink" viewBox="0 0 26 26" width="52" height="52" style="fill: rgb(231, 76, 60);"><g transform=""><g fill="none" stroke="none" stroke-width="1" stroke-linecap="butt" stroke-linejoin="miter" stroke-miterlimit="10" stroke-dasharray="" stroke-dashoffset="0" font-family="sans-serif" font-weight="normal" font-size="12" text-anchor="start" mix-blend-mode="normal"><g><g><g><path d="M0,26l0,-26l26,0l0,26z" fill="none"/><g fill="#e74c3c"><path d="M6,1c-2.74545,0 -5,2.25455 -5,5l0,14c0,2.74546 2.25455,5 5,5l14,0c2.74546,0 5,-2.25454 5,-5l0,-14c0,-2.74545 -2.25454,-5 -5,-5z M6,3l14,0c1.65454,0 3,1.34545 3,3l0,14c0,1.65454 -1.34545,3 -3,3l-14,0c-1.65455,0 -3,-1.34545 -3,-3l0,-14c0,-1.65455 1.34545,-3 3,-3z M17.1875,7.0625c-0.15,0.025 -0.275,0.1 -0.375,0.25l-4.90625,7.28125l-2.3125,-2.28125c-0.2,-0.3 -0.58125,-0.325 -0.78125,-0.125l-0.90625,0.90625c-0.2,0.3 -0.2,0.70625 0,0.90625l3.5,3.5c0.2,0.1 0.48125,0.3125 0.78125,0.3125c0.2,0 0.51875,-0.10625 0.71875,-0.40625l6,-8.8125c0.2,-0.3 0.0875,-0.58125 -0.3125,-0.78125l-1,-0.71875c-0.1,-0.05 -0.25625,-0.05625 -0.40625,-0.03125z"/></g></g></g></g></g></g></svg>