<svg xmlns="http://www.w3.org/2000/svg" viewBox="0 0 31 17.5" x="0px" y="0px"><title>mail</title><g data-name="Layer 2"><g data-name="Слой 1"><path d="M9,2H1A1,1,0,0,0,1,4H9A1,1,0,0,0,9,2Z"/><path d="M9,6H3A1,1,0,0,0,3,8H9A1,1,0,0,0,9,6Z"/><path d="M9,10H6a1,1,0,0,0,0,2H9a1,1,0,0,0,0-2Z"/><path d="M28.35,0H14.65A2.7,2.7,0,0,0,12,2.73v8.53A2.7,2.7,0,0,0,14.65,14h13.7A2.7,2.7,0,0,0,31,11.27V2.73A2.7,2.7,0,0,0,28.35,0Zm-1,2L21.51,6.66,15.61,2Zm1,10H14.65a.7.7,0,0,1-.65-.73v-8l6.89,5.44a1,1,0,0,0,1.24,0L29,3.28v8A.7.7,0,0,1,28.35,12Z"/></g></g><text x="0" y="29" fill="#000000" font-size="5px" font-weight="bold" font-family="'Helvetica Neue', Helvetica, Arial-Unicode, Arial, Sans-serif">Created by Makarenko Andrey</text><text x="0" y="34" fill="#000000" font-size="5px" font-weight="bold" font-family="'Helvetica Neue', Helvetica, Arial-Unicode, Arial, Sans-serif">from the Noun Project</text></svg>